<?xml version="1.0" standalone="no"?>
<!DOCTYPE svg PUBLIC "-//W3C//DTD SVG 20010904//EN"
 "http://www.w3.org/TR/2001/REC-SVG-20010904/DTD/svg10.dtd">
<svg version="1.0" xmlns="http://www.w3.org/2000/svg"
 width="1024.000000pt" height="1024.000000pt" viewBox="0 0 1024.000000 1024.000000"
 preserveAspectRatio="xMidYMid meet">

<g transform="translate(0.000000,1024.000000) scale(0.100000,-0.100000)"
fill="#000000" stroke="none">
<path d="M4933 7303 c-14 -32 -93 -202 -176 -378 -82 -176 -190 -408 -239
-515 -50 -107 -131 -278 -180 -380 -94 -193 -99 -204 -271 -595 -58 -132 -162
-359 -232 -505 -70 -146 -146 -310 -170 -365 -45 -105 -118 -264 -280 -605
-77 -162 -179 -391 -222 -497 -4 -10 45 -13 227 -13 l231 0 45 98 c25 53 64
140 86 192 22 52 67 155 100 228 l61 132 187 0 c103 0 348 3 546 7 l360 6 53
-109 c29 -60 102 -212 161 -339 156 -335 370 -778 382 -792 25 -31 49 -14 82
60 19 39 271 547 560 1127 290 580 569 1150 621 1265 51 116 110 246 130 290
21 44 50 108 66 143 l28 62 -238 0 -237 0 -79 -177 c-93 -212 -341 -736 -468
-988 -49 -99 -138 -283 -197 -410 -59 -126 -136 -288 -170 -359 l-63 -130 -40
80 c-22 43 -86 180 -142 304 -57 124 -146 313 -198 420 -310 640 -413 855
-491 1027 l-88 192 107 238 c60 131 145 321 190 423 143 324 150 340 156 340
10 0 195 -401 656 -1425 79 -175 146 -321 148 -323 2 -3 15 20 28 49 147 329
197 442 197 451 0 6 -48 110 -106 232 -59 121 -147 309 -196 416 -49 107 -150
326 -223 485 -74 160 -174 380 -224 490 l-89 200 -181 3 -182 2 -26 -57z
m-464 -2025 c19 -45 300 -655 332 -722 10 -22 19 -41 19 -43 0 -2 -165 -3
-366 -3 -289 0 -365 3 -361 13 16 37 110 246 186 412 48 105 105 234 126 288
21 53 40 97 42 97 2 0 12 -19 22 -42z"/>
</g>
</svg>
